<?xml version="1.0" encoding="UTF-8"?>
<!-- Generator: https://ezgif.com/png-to-svg -->
<svg version="1.1" xmlns="http://www.w3.org/2000/svg" width="32" height="32">
<path d="M0,0 L9,0 L9,1 L10,1 L10,2 L11,2 L11,3 L12,3 L12,4 L13,4 L13,11 L12,11 L12,12 L11,12 L11,13 L10,13 L10,14 L9,14 L9,15 L8,15 L8,16 L7,16 L7,17 L1,17 L1,13 L2,13 L2,12 L3,12 L3,11 L4,11 L4,10 L5,10 L5,8 L6,8 L6,6 L5,6 L5,5 L2,5 L2,6 L1,6 L1,9 L-5,9 L-5,5 L-4,5 L-4,3 L-3,3 L-3,2 L-2,2 L-2,1 L0,1 Z " fill="#FFFFFF" transform="translate(12,3)"/>
<path d="M0,0 L7,0 L7,7 L0,7 Z " fill="#FFFFFF" transform="translate(13,21)"/>
</svg>
